<svg id="Capa_1" data-name="Capa 1" xmlns="http://www.w3.org/2000/svg" xmlns:xlink="http://www.w3.org/1999/xlink" viewBox="0 0 1441 998"><defs><style>.cls-1,.cls-2,.cls-3,.cls-4{fill:none;stroke-width:2px;}.cls-1,.cls-2{opacity:0.5;isolation:isolate;}.cls-1{stroke:url(#Degradado_sin_nombre);}.cls-2{stroke:url(#Degradado_sin_nombre_2);}.cls-3{stroke:url(#Degradado_sin_nombre_2-2);}.cls-4{stroke:url(#Degradado_sin_nombre_5);}</style><radialGradient id="Degradado_sin_nombre" cx="324.86" cy="560.97" r="433.63" gradientTransform="translate(0 -2.21)" gradientUnits="userSpaceOnUse"><stop offset="0" stop-color="#edc500"/><stop offset="1" stop-color="#c7c7c7" stop-opacity="0"/></radialGradient><radialGradient id="Degradado_sin_nombre_2" cx="504.94" cy="699.55" r="433.63" gradientTransform="matrix(-1, 0, 0, 1, 1485.72, -2.21)" gradientUnits="userSpaceOnUse"><stop offset="0" stop-color="#00ffe1"/><stop offset="1" stop-color="#c7c7c7" stop-opacity="0"/></radialGradient><radialGradient id="Degradado_sin_nombre_2-2" cx="475.85" cy="149.8" r="143.18" gradientTransform="translate(0 -2.21)" xlink:href="#Degradado_sin_nombre_2"/><radialGradient id="Degradado_sin_nombre_5" cx="833.3" cy="571.91" r="456.85" gradientUnits="userSpaceOnUse"><stop offset="0" stop-color="#fff59d"/><stop offset="1" stop-color="#c7c7c7" stop-opacity="0"/></radialGradient></defs><title>onepass-hero-shapes</title><path class="cls-1" d="M78.12,0V294s4.5,66,64.5,66h372s57,9,57,58.5v703.46"/><path class="cls-2" d="M1227.52,138.58v294s-4.5,66-64.5,66H791s-57,9-57,58.5v703.46"/><path class="cls-3" d="M340.61,0V90.11S339.11,298.6,612.1,298.6"/><path class="cls-4" d="M1003.13-51C985.73,42.13,970.94,136,943.82,226.83,931.23,269,914.15,312.91,878.5,338.69c-44.16,31.94-107,28.76-150.19,62-78,60-63.73,183.9-63.73,269.26,0,125-1.37,406.89-1,525.07"/></svg>